<?xml version="1.0" encoding="utf-8"?>
<!-- Generator: Adobe Illustrator 19.0.0, SVG Export Plug-In . SVG Version: 6.00 Build 0)  -->
<svg version="1.1" xmlns="http://www.w3.org/2000/svg" xmlns:xlink="http://www.w3.org/1999/xlink" x="0px" y="0px"
	 viewBox="0 0 129.1 94" style="enable-background:new 0 0 129.1 94;" xml:space="preserve">
<style type="text/css">
	.st0{fill:url(#XMLID_158_);}
	.st1{fill:none;stroke:#FCBF20;stroke-miterlimit:10;}
</style>
<g id="Laag_1">
</g>
<g id="Laag_2">
	<g id="XMLID_3_">
		<linearGradient id="XMLID_158_" gradientUnits="userSpaceOnUse" x1="18.9935" y1="79.3866" x2="104.3421" y2="-5.962">
			<stop  offset="0" style="stop-color:#942314"/>
			<stop  offset="0.1753" style="stop-color:#A22616"/>
			<stop  offset="0.439" style="stop-color:#B22A17"/>
			<stop  offset="0.7106" style="stop-color:#BC2C17"/>
			<stop  offset="1" style="stop-color:#BF2D18"/>
		</linearGradient>
		<path id="XMLID_188_" class="st0" d="M33.9,68.9C24,46.7,14.2,27,4.8,14.1C23.5,6.3,43.3,2.2,63.1,1.8C59.6,9.9,56,18,52.5,26
			c-6.3,0-12.7,0.2-18.9,0.7c3.6,6,7.2,12.5,10.8,19.1C40.8,53.8,37.3,61.6,33.9,68.9z M47,48.4c3.8,6.9,7.6,13.9,11.4,20.9
			c-6.6-0.5-13.2-1.1-19.7-1.9c-3.5,7.5-6.9,14.7-10.3,21.4c19.4,4.3,39.5,4.7,59.2,1.5C77.5,70.2,67.3,46.9,57.1,24.8
			C53.7,32.8,50.4,40.7,47,48.4z M103.3,6.9c-2.6,6.4-5.2,13.2-7.9,20.3c-3-7.7-6.1-15.6-9.2-23.7c-6.9-0.9-13.8-1.4-20.7-1.4
			C72.7,18.5,79.9,35.3,87,50.9c-1.7,5-3.4,10-5.2,15.1c2.9,5.6,5.8,11,8.7,16.1c11.4-27.6,22.6-52.7,33.4-68.4
			C117.2,10.9,110.3,8.7,103.3,6.9z"/>
		<path id="XMLID_184_" class="st1" d="M33.9,68.9C24,46.7,14.2,27,4.8,14.1C23.5,6.3,43.3,2.2,63.1,1.8C59.6,9.9,56,18,52.5,26
			c-6.3,0-12.7,0.2-18.9,0.7c3.6,6,7.2,12.5,10.8,19.1C40.8,53.8,37.3,61.6,33.9,68.9z M47,48.4c3.8,6.9,7.6,13.9,11.4,20.9
			c-6.6-0.5-13.2-1.1-19.7-1.9c-3.5,7.5-6.9,14.7-10.3,21.4c19.4,4.3,39.5,4.7,59.2,1.5C77.5,70.2,67.3,46.9,57.1,24.8
			C53.7,32.8,50.4,40.7,47,48.4z M103.3,6.9c-2.6,6.4-5.2,13.2-7.9,20.3c-3-7.7-6.1-15.6-9.2-23.7c-6.9-0.9-13.8-1.4-20.7-1.4
			C72.7,18.5,79.9,35.3,87,50.9c-1.7,5-3.4,10-5.2,15.1c2.9,5.6,5.8,11,8.7,16.1c11.4-27.6,22.6-52.7,33.4-68.4
			C117.2,10.9,110.3,8.7,103.3,6.9z"/>
	</g>
</g>
</svg>
