<?xml version="1.0" encoding="utf-8"?>
<!-- Generator: Adobe Illustrator 19.0.0, SVG Export Plug-In . SVG Version: 6.00 Build 0)  -->
<svg version="1.1" xmlns="http://www.w3.org/2000/svg" xmlns:xlink="http://www.w3.org/1999/xlink" x="0px" y="0px"
	 viewBox="0 0 129.1 119.5" style="enable-background:new 0 0 129.1 119.5;" xml:space="preserve">
<style type="text/css">
	.st0{fill:url(#XMLID_145_);}
	.st1{fill:none;stroke:#E6332A;stroke-miterlimit:10;}
</style>
<g id="Laag_1">
</g>
<g id="Laag_2">
	<g id="XMLID_3_">
		<linearGradient id="XMLID_145_" gradientUnits="userSpaceOnUse" x1="17.0966" y1="100.42" x2="107.3373" y2="10.1793">
			<stop  offset="0" style="stop-color:#942314"/>
			<stop  offset="0.1753" style="stop-color:#A22616"/>
			<stop  offset="0.439" style="stop-color:#B22A17"/>
			<stop  offset="0.7106" style="stop-color:#BC2C17"/>
			<stop  offset="1" style="stop-color:#BF2D18"/>
		</linearGradient>
		<path id="XMLID_136_" class="st0" d="M32.4,86.9c-10-28-19.5-50.9-27.6-59.7c16.1-16,37.2-24.5,58.3-25
			C59.3,12.5,55.5,23,51.7,33.3C45,33.5,38.4,34.2,32,35.2c3.6,7.1,7.4,15,11.1,23.3C39.5,68.6,35.9,78.2,32.4,86.9z M46,61.9
			c4,8.7,8,17.7,12.1,26.8c-7-0.7-14-1.8-20.7-3.2c-3.6,9.2-7.1,17.5-10.5,24.8c19.4,9.2,41.6,10.4,62,3.9
			C78.4,90.3,67.4,59.7,56.6,31.7C53,41.9,49.5,52.1,46,61.9z M104.8,12.6c-2.6,7-5.2,14.8-7.9,23.3c-3.1-9.6-6.2-19.8-9.4-30.3
			c-7.1-2-14.5-3-21.9-3c7.6,21,15.3,42.8,22.7,62.3c-1.8,6.2-3.6,12.6-5.4,19.1c3,6.9,6,13.5,9,19.5c11.7-35.5,22.7-65.9,32-76.8
			C118.1,21,111.7,16.3,104.8,12.6z"/>
		<path id="XMLID_132_" class="st1" d="M32.4,86.9c-10-28-19.5-50.9-27.6-59.7c16.1-16,37.2-24.5,58.3-25
			C59.3,12.5,55.5,23,51.7,33.3C45,33.5,38.4,34.2,32,35.2c3.6,7.1,7.4,15,11.1,23.3C39.5,68.6,35.9,78.2,32.4,86.9z M46,61.9
			c4,8.7,8,17.7,12.1,26.8c-7-0.7-14-1.8-20.7-3.2c-3.6,9.2-7.1,17.5-10.5,24.8c19.4,9.2,41.6,10.4,62,3.9
			C78.4,90.3,67.4,59.7,56.6,31.7C53,41.9,49.5,52.1,46,61.9z M104.8,12.6c-2.6,7-5.2,14.8-7.9,23.3c-3.1-9.6-6.2-19.8-9.4-30.3
			c-7.1-2-14.5-3-21.9-3c7.6,21,15.3,42.8,22.7,62.3c-1.8,6.2-3.6,12.6-5.4,19.1c3,6.9,6,13.5,9,19.5c11.7-35.5,22.7-65.9,32-76.8
			C118.1,21,111.7,16.3,104.8,12.6z"/>
	</g>
</g>
</svg>
